<svg width="45" height="45" viewBox="0 0 45 45" fill="none" xmlns="http://www.w3.org/2000/svg">
<circle cx="22.5" cy="22.5" r="21.5357" fill="#F7F9F7" stroke="#34322D" stroke-width="1.92857"/>
<path d="M26.1008 23.4489C26.9674 22.7671 27.5999 21.8321 27.9104 20.7741C28.2209 19.716 28.1939 18.5875 27.8331 17.5456C27.4723 16.5036 26.7958 15.6 25.8975 14.9604C24.9993 14.3209 23.9241 13.9772 22.8214 13.9772C21.7188 13.9772 20.6435 14.3209 19.7453 14.9604C18.847 15.6 18.1705 16.5036 17.8097 17.5456C17.449 18.5875 17.4219 19.716 17.7324 20.7741C18.0429 21.8321 18.6754 22.7671 19.542 23.4489C18.0571 24.0438 16.7614 25.0306 15.7932 26.3039C14.8249 27.5773 14.2204 29.0895 14.044 30.6794C14.0312 30.7955 14.0414 30.913 14.0741 31.0251C14.1067 31.1372 14.1611 31.2418 14.2341 31.333C14.3817 31.517 14.5963 31.6348 14.8307 31.6606C15.0651 31.6864 15.3002 31.618 15.4842 31.4705C15.6682 31.3229 15.7861 31.1083 15.8119 30.8739C16.006 29.146 16.8299 27.5502 18.1262 26.3913C19.4225 25.2325 21.1003 24.5919 22.8391 24.5919C24.5779 24.5919 26.2557 25.2325 27.552 26.3913C28.8483 27.5502 29.6722 29.146 29.8663 30.8739C29.8904 31.0911 29.994 31.2917 30.1572 31.437C30.3205 31.5823 30.5317 31.6619 30.7502 31.6606H30.8475C31.0792 31.6339 31.291 31.5168 31.4367 31.3347C31.5824 31.1525 31.6502 30.9202 31.6253 30.6883C31.4481 29.0939 30.8403 27.5777 29.8671 26.3024C28.8938 25.0271 27.5919 24.0407 26.1008 23.4489V23.4489ZM22.8214 22.8213C22.1221 22.8213 21.4385 22.614 20.8571 22.2254C20.2756 21.8369 19.8224 21.2847 19.5548 20.6387C19.2872 19.9926 19.2172 19.2817 19.3536 18.5958C19.4901 17.91 19.8268 17.28 20.3213 16.7855C20.8158 16.291 21.4458 15.9543 22.1316 15.8178C22.8175 15.6814 23.5284 15.7514 24.1745 16.019C24.8205 16.2866 25.3727 16.7398 25.7612 17.3213C26.1498 17.9027 26.3571 18.5863 26.3571 19.2856C26.3571 20.2233 25.9846 21.1227 25.3215 21.7857C24.6585 22.4488 23.7591 22.8213 22.8214 22.8213Z" fill="#34322D"/>
</svg>
