<svg width="80" height="47" viewBox="0 0 80 47" fill="none" xmlns="http://www.w3.org/2000/svg">
<path d="M54.4097 20.2335C60.3424 20.2335 65.0958 15.8737 65.0958 10.4727C65.0958 5.07165 60.3424 0.711792 54.4097 0.711792C48.4769 0.711792 43.6878 5.07165 43.6878 10.4727C43.6878 15.8737 48.4769 20.2335 54.4097 20.2335ZM25.8181 20.2335C31.7509 20.2335 36.5042 15.8737 36.5042 10.4727C36.5042 5.07165 31.7509 0.711792 25.8181 0.711792C19.8854 0.711792 15.0963 5.07165 15.0963 10.4727C15.0963 15.8737 19.8854 20.2335 25.8181 20.2335ZM25.8181 26.7408C17.4908 26.7408 0.800537 30.5475 0.800537 38.1285V46.2625H50.8357V38.1285C50.8357 30.5475 34.1454 26.7408 25.8181 26.7408ZM54.4097 26.7408C53.3732 26.7408 52.1938 26.8059 50.9429 26.9035C55.0887 29.6365 57.9836 33.3131 57.9836 38.1285V46.2625H79.4273V38.1285C79.4273 30.5475 62.737 26.7408 54.4097 26.7408Z" fill="#93B394"/>
</svg>
