<svg width="52" height="32" viewBox="0 0 52 32" fill="none" xmlns="http://www.w3.org/2000/svg">
<path d="M34.9637 14.2415C38.8187 14.2415 41.9073 11.277 41.9073 7.60459C41.9073 3.93215 38.8187 0.967651 34.9637 0.967651C31.1088 0.967651 27.9969 3.93215 27.9969 7.60459C27.9969 11.277 31.1088 14.2415 34.9637 14.2415ZM16.3855 14.2415C20.2405 14.2415 23.3291 11.277 23.3291 7.60459C23.3291 3.93215 20.2405 0.967651 16.3855 0.967651C12.5306 0.967651 9.41873 3.93215 9.41873 7.60459C9.41873 11.277 12.5306 14.2415 16.3855 14.2415ZM16.3855 18.6662C10.9747 18.6662 0.129639 21.2546 0.129639 26.4093V31.94H32.6415V26.4093C32.6415 21.2546 21.7964 18.6662 16.3855 18.6662ZM34.9637 18.6662C34.2903 18.6662 33.5239 18.7104 32.7111 18.7768C35.405 20.6351 37.286 23.135 37.286 26.4093V31.94H51.2196V26.4093C51.2196 21.2546 40.3746 18.6662 34.9637 18.6662Z" fill="#93B394"/>
</svg>
