<svg width="86" height="56" viewBox="0 0 86 56" fill="none" xmlns="http://www.w3.org/2000/svg">
<path d="M85.0734 26.877C76.5147 10.7303 60.4141 0.711792 43.0424 0.711792C25.6708 0.711792 9.57017 10.7303 1.01144 26.877C0.778136 27.3113 0.657715 27.7802 0.657715 28.2541C0.657715 28.728 0.778136 29.1968 1.01144 29.6312C9.57017 45.7779 25.6708 55.7964 43.0424 55.7964C60.4141 55.7964 76.5147 45.7779 85.0734 29.6312C85.3067 29.1968 85.4272 28.728 85.4272 28.2541C85.4272 27.7802 85.3067 27.3113 85.0734 26.877V26.877ZM43.0424 48.9108C29.6112 48.9108 16.9002 41.0268 9.57017 28.2541C16.9002 15.4814 29.6112 7.59737 43.0424 7.59737C56.4737 7.59737 69.1847 15.4814 76.5147 28.2541C69.1847 41.0268 56.4737 48.9108 43.0424 48.9108ZM43.0424 14.4829C39.6904 14.4829 36.4137 15.2906 33.6266 16.8038C30.8396 18.317 28.6673 20.4678 27.3845 22.9841C26.1018 25.5004 25.7662 28.2694 26.4201 30.9407C27.074 33.6121 28.6882 36.0658 31.0584 37.9918C33.4286 39.9177 36.4485 41.2293 39.7361 41.7606C43.0236 42.292 46.4313 42.0193 49.5282 40.977C52.625 39.9347 55.2719 38.1696 57.1342 35.9049C58.9964 33.6403 59.9904 30.9778 59.9904 28.2541C59.9904 24.6018 58.2048 21.099 55.0265 18.5164C51.8481 15.9338 47.5373 14.4829 43.0424 14.4829V14.4829ZM43.0424 35.1397C41.3664 35.1397 39.7281 34.7358 38.3345 33.9792C36.941 33.2226 35.8549 32.1473 35.2135 30.8891C34.5721 29.6309 34.4043 28.2465 34.7313 26.9108C35.0582 25.5751 35.8653 24.3482 37.0504 23.3853C38.2355 22.4223 39.7455 21.7665 41.3892 21.5008C43.033 21.2351 44.7369 21.3715 46.2853 21.8927C47.8337 22.4138 49.1572 23.2963 50.0883 24.4287C51.0194 25.561 51.5164 26.8923 51.5164 28.2541C51.5164 30.0803 50.6236 31.8316 49.0345 33.1229C47.4453 34.4142 45.2899 35.1397 43.0424 35.1397Z" fill="#93B394"/>
</svg>
