<svg width="35" height="36" viewBox="0 0 35 36" fill="none" xmlns="http://www.w3.org/2000/svg">
<path d="M30.7644 0.935181H4.0814C2.05183 0.935181 0.388916 2.5981 0.388916 4.62932V31.3139C0.388916 33.3418 2.05183 35.0048 4.0814 35.0048H30.7644C32.7956 35.0048 34.4585 33.3419 34.4585 31.3139V4.62932C34.4585 2.5981 32.7956 0.935181 30.7644 0.935181ZM31.6632 31.8363H3.18587V8.59437H31.6632V31.8363Z" fill="#93B394"/>
<path d="M9.77259 16.4191C11.303 16.4191 12.5436 15.1785 12.5436 13.6481C12.5436 12.1177 11.303 10.8771 9.77259 10.8771C8.24221 10.8771 7.00159 12.1177 7.00159 13.6481C7.00159 15.1785 8.24221 16.4191 9.77259 16.4191Z" fill="#93B394"/>
<path d="M27.0137 12.4944H14.8508V14.803H27.0137V12.4944Z" fill="#93B394"/>
<path d="M9.77259 23.1907C11.303 23.1907 12.5436 21.9501 12.5436 20.4197C12.5436 18.8893 11.303 17.6487 9.77259 17.6487C8.24221 17.6487 7.00159 18.8893 7.00159 20.4197C7.00159 21.9501 8.24221 23.1907 9.77259 23.1907Z" fill="#93B394"/>
<path d="M27.0137 19.2661H14.8508V21.5731H27.0137V19.2661Z" fill="#93B394"/>
<path d="M9.77259 29.9641C11.303 29.9641 12.5436 28.7235 12.5436 27.1931C12.5436 25.6627 11.303 24.4221 9.77259 24.4221C8.24221 24.4221 7.00159 25.6627 7.00159 27.1931C7.00159 28.7235 8.24221 29.9641 9.77259 29.9641Z" fill="#93B394"/>
<path d="M27.0137 26.038H14.8508V28.345H27.0137V26.038Z" fill="#93B394"/>
</svg>
