<svg width="35" height="32" viewBox="0 0 35 32" fill="none" xmlns="http://www.w3.org/2000/svg">
<path d="M17.63 0C13.0967 0 12.5266 0.02 10.7454 0.096C8.96428 0.176 7.75108 0.444 6.68822 0.84C5.57336 1.24164 4.56354 1.87165 3.72935 2.686C2.87964 3.48539 2.22195 4.45248 1.80201 5.52C1.38857 6.536 1.10667 7.7 1.02523 9.4C0.945884 11.11 0.925003 11.654 0.925003 16.002C0.925003 20.346 0.945884 20.89 1.02523 22.596C1.10876 24.3 1.38857 25.462 1.80201 26.48C2.23008 27.532 2.80014 28.424 3.72935 29.314C4.65648 30.204 5.58778 30.752 6.68613 31.16C7.75108 31.556 8.96219 31.826 10.7413 31.904C12.5245 31.98 13.0925 32 17.63 32C22.1675 32 22.7334 31.98 24.5166 31.904C26.2936 31.824 27.511 31.556 28.5738 31.16C29.688 30.7582 30.6971 30.1282 31.5306 29.314C32.4598 28.424 33.0299 27.532 33.458 26.48C33.8693 25.462 34.1512 24.3 34.2347 22.596C34.3141 20.89 34.335 20.346 34.335 16C34.335 11.654 34.3141 11.11 34.2347 9.402C34.1512 7.7 33.8693 6.536 33.458 5.52C33.0381 4.45245 32.3804 3.48535 31.5306 2.686C30.6967 1.87135 29.6868 1.24129 28.5717 0.84C27.5068 0.444 26.2915 0.174 24.5145 0.096C22.7313 0.02 22.1654 0 17.6258 0H17.6321H17.63ZM16.1328 2.884H17.6321C22.0923 2.884 22.6206 2.898 24.3809 2.976C26.0096 3.046 26.895 3.308 27.4838 3.526C28.2627 3.816 28.8202 4.164 29.4049 4.724C29.9896 5.284 30.3508 5.816 30.6536 6.564C30.8833 7.126 31.1548 7.974 31.2278 9.534C31.3093 11.22 31.326 11.726 31.326 15.996C31.326 20.266 31.3093 20.774 31.2278 22.46C31.1548 24.02 30.8812 24.866 30.6536 25.43C30.3858 26.1247 29.9583 26.7529 29.4028 27.268C28.8181 27.828 28.2627 28.174 27.4817 28.464C26.8971 28.684 26.0117 28.944 24.3809 29.016C22.6206 29.092 22.0923 29.11 17.6321 29.11C13.1718 29.11 12.6415 29.092 10.8812 29.016C9.25244 28.944 8.36916 28.684 7.78031 28.464C7.05469 28.2078 6.39824 27.7992 5.85924 27.268C5.30328 26.7521 4.87515 26.1233 4.60636 25.428C4.37876 24.866 4.10521 24.018 4.03213 22.458C3.95278 20.772 3.93608 20.266 3.93608 15.992C3.93608 11.72 3.95278 11.216 4.03213 9.53C4.1073 7.97 4.37876 7.122 4.60845 6.558C4.91123 5.812 5.27456 5.278 5.85924 4.718C6.44391 4.158 6.99935 3.812 7.78031 3.522C8.36916 3.302 9.25244 3.042 10.8812 2.97C12.4222 2.902 13.0194 2.882 16.1328 2.88V2.884ZM26.5484 5.54C26.2851 5.54 26.0244 5.58966 25.7812 5.68615C25.538 5.78264 25.317 5.92407 25.1309 6.10236C24.9447 6.28064 24.7971 6.4923 24.6963 6.72525C24.5956 6.95819 24.5438 7.20786 24.5438 7.46C24.5438 7.71214 24.5956 7.96181 24.6963 8.19475C24.7971 8.4277 24.9447 8.63936 25.1309 8.81765C25.317 8.99593 25.538 9.13736 25.7812 9.23385C26.0244 9.33034 26.2851 9.38 26.5484 9.38C27.08 9.38 27.5899 9.17772 27.9658 8.81765C28.3418 8.45757 28.553 7.96922 28.553 7.46C28.553 6.95078 28.3418 6.46242 27.9658 6.10236C27.5899 5.74229 27.08 5.54 26.5484 5.54ZM17.6321 7.784C16.4942 7.767 15.3642 7.96697 14.3077 8.37228C13.2513 8.77759 12.2896 9.38014 11.4787 10.1448C10.6677 10.9096 10.0237 11.8211 9.58412 12.8265C9.14452 13.8319 8.91813 14.911 8.91813 16.001C8.91813 17.091 9.14452 18.1701 9.58412 19.1755C10.0237 20.1809 10.6677 21.0924 11.4787 21.8572C12.2896 22.6219 13.2513 23.2244 14.3077 23.6297C15.3642 24.035 16.4942 24.235 17.6321 24.218C19.8842 24.1843 22.0322 23.3038 23.6124 21.7665C25.1926 20.2292 26.0783 18.1583 26.0783 16.001C26.0783 13.8437 25.1926 11.7728 23.6124 10.2355C22.0322 8.69817 19.8842 7.81765 17.6321 7.784ZM17.6321 10.666C19.1091 10.666 20.5256 11.228 21.57 12.2283C22.6144 13.2286 23.2011 14.5853 23.2011 16C23.2011 17.4147 22.6144 18.7714 21.57 19.7717C20.5256 20.772 19.1091 21.334 17.6321 21.334C16.1551 21.334 14.7386 20.772 13.6942 19.7717C12.6498 18.7714 12.063 17.4147 12.063 16C12.063 14.5853 12.6498 13.2286 13.6942 12.2283C14.7386 11.228 16.1551 10.666 17.6321 10.666Z" fill="white"/>
</svg>
