<svg width="29" height="29" viewBox="0 0 29 29" fill="none" xmlns="http://www.w3.org/2000/svg">
<path d="M29 10.2783C29 15.9548 24.3982 20.5566 18.7217 20.5566C13.0452 20.5566 8.44342 15.9548 8.44342 10.2783C8.44342 4.60174 13.0452 0 18.7217 0C24.3982 0 29 4.60174 29 10.2783ZM11.9639 10.2783C11.9639 14.0105 14.9894 17.0361 18.7217 17.0361C22.454 17.0361 25.4796 14.0105 25.4796 10.2783C25.4796 6.54603 22.454 3.52043 18.7217 3.52043C14.9894 3.52043 11.9639 6.54603 11.9639 10.2783Z" fill="#93B394"/>
<rect x="10.3958" y="15.6743" width="4.11131" height="14.7019" transform="rotate(45 10.3958 15.6743)" fill="#93B394"/>
</svg>
