<svg width="29" height="29" viewBox="0 0 29 29" fill="none" xmlns="http://www.w3.org/2000/svg">
<path d="M28.9999 10.2783C28.9999 15.9548 24.3982 20.5566 18.7216 20.5566C13.0451 20.5566 8.44336 15.9548 8.44336 10.2783C8.44336 4.60174 13.0451 0 18.7216 0C24.3982 0 28.9999 4.60174 28.9999 10.2783ZM11.9638 10.2783C11.9638 14.0105 14.9894 17.0361 18.7216 17.0361C22.4539 17.0361 25.4795 14.0105 25.4795 10.2783C25.4795 6.54603 22.4539 3.52043 18.7216 3.52043C14.9894 3.52043 11.9638 6.54603 11.9638 10.2783Z" fill="#F7F9F7"/>
<rect x="10.3958" y="15.6743" width="4.11131" height="14.7019" transform="rotate(45 10.3958 15.6743)" fill="#F7F9F7"/>
</svg>
