<?xml version="1.0" standalone="no"?>
<!DOCTYPE svg PUBLIC "-//W3C//DTD SVG 20010904//EN"
 "http://www.w3.org/TR/2001/REC-SVG-20010904/DTD/svg10.dtd">
<svg version="1.0" xmlns="http://www.w3.org/2000/svg"
 width="245.000000pt" height="245.000000pt" viewBox="0 0 245.000000 245.000000"
 preserveAspectRatio="xMidYMid meet">
<metadata>
Created by potrace 1.14, written by Peter Selinger 2001-2017
</metadata>
<g transform="translate(0.000000,245.000000) scale(0.100000,-0.100000)"
fill="#000000" stroke="none">
<path d="M1508 2155 c-2 -2 -31 -5 -66 -8 -80 -8 -192 -39 -263 -73 -162 -78
-251 -181 -328 -377 -17 -43 -39 -90 -48 -105 -61 -98 -167 -190 -271 -238
-108 -49 -278 -83 -399 -78 -43 1 -49 -1 -49 -20 0 -11 45 -99 99 -196 55 -96
115 -204 135 -240 19 -36 61 -110 92 -165 31 -55 76 -135 99 -177 23 -43 49
-84 57 -92 13 -14 90 -28 163 -30 28 -1 36 -8 52 -38 15 -30 28 -40 62 -49
112 -30 268 -11 378 48 63 33 80 45 154 111 67 60 144 171 240 347 113 206
268 344 442 391 65 17 210 20 263 4 19 -5 35 -10 36 -10 1 0 0 11 -1 24 -2 13
-57 120 -123 238 -66 117 -129 229 -139 248 -11 19 -35 62 -53 95 -19 33 -40
71 -47 85 -7 14 -37 66 -66 115 l-52 90 -93 -3 c-69 -2 -92 1 -92 10 -1 7 -13
31 -28 53 -27 39 -29 40 -90 41 -34 0 -63 0 -64 -1z"/>
</g>
</svg>
