<svg width="64" height="66" viewBox="0 0 64 66" fill="none" xmlns="http://www.w3.org/2000/svg">
<path d="M34.9467 33.2965L32.7914 22.4915H30.8835L28.6811 33.2965C26.814 34.2339 25.5484 35.9546 25.5484 37.9508C25.5484 40.933 28.3553 43.3533 31.8139 43.3533C35.2725 43.3533 38.0795 40.933 38.0795 37.9508C38.0795 35.9546 36.8139 34.2339 34.9467 33.2965ZM31.8139 11.6864C14.5147 11.6864 0.486084 23.78 0.486084 38.699C0.486084 53.6181 14.5147 65.7117 31.8139 65.7117C49.1132 65.7117 63.1418 53.6181 63.1418 38.699C63.1418 23.78 49.1132 11.6864 31.8139 11.6864ZM31.8139 60.3092C17.9952 60.3092 6.75165 50.6143 6.75165 38.699C6.75165 26.7838 17.9952 17.0889 31.8139 17.0889C45.6326 17.0889 56.8762 26.7838 56.8762 38.699C56.8762 50.6143 45.6326 60.3092 31.8139 60.3092ZM25.5484 6.7728V0.881348H38.0795V6.7728C33.5746 6.1164 29.9593 6.1299 25.5484 6.7728ZM54.3042 12.7858L58.712 8.98514L63.1418 12.8047L59.0034 16.3731C57.556 15.0657 55.9834 13.8717 54.3042 12.7858Z" fill="#93B394"/>
</svg>
