<svg width="46" height="72" viewBox="0 0 46 72" fill="none" xmlns="http://www.w3.org/2000/svg">
<path d="M26.1137 71.4317V63.9625C32.1327 63.2192 36.8341 61.1945 40.2176 57.893C43.5961 54.5916 45.2866 50.531 45.2866 45.7161C45.2866 41.4034 43.943 37.8675 41.2584 35.113C38.5713 32.3584 33.5256 30.1128 26.1137 28.3829V12.7774C29.1089 13.8958 30.96 16.0253 31.6694 19.1638L43.3865 17.8445C42.5814 13.8532 40.7302 10.6656 37.8307 8.28374C34.926 5.89967 31.0195 4.45544 26.111 3.95105V0H19.4008V3.95105C14.091 4.40413 9.83496 6.11411 6.64044 9.08523C3.44846 12.0496 1.84841 15.715 1.84841 20.0812C1.84841 24.3939 3.26451 28.0592 6.08894 31.0839C8.91067 34.1041 13.348 36.3609 19.4033 37.8497V54.5803C17.7334 53.8861 16.2216 52.7677 14.865 51.2252C13.5059 49.6828 12.5791 47.8457 12.0873 45.7161L0 46.8345C0.926825 52.0781 3.0574 56.1341 6.38921 59.0114C9.72625 61.8843 14.0599 63.6032 19.4033 64.1612V71.4295H26.1136V71.4317H26.1137ZM26.1137 39.5664C28.8915 40.2606 30.8927 41.2518 32.1095 42.5421C33.3315 43.8322 33.9424 45.3703 33.9424 47.1539C33.9424 49.1495 33.2123 50.8885 31.7651 52.3663C30.3128 53.844 28.4281 54.7704 26.1137 55.141V39.5664ZM14.9066 23.5345C13.9228 22.3269 13.4258 21.0167 13.4258 19.6036C13.4258 18.0611 13.9642 16.6481 15.049 15.3714C16.1285 14.0901 17.5809 13.1882 19.4035 12.6524V26.4699C17.3921 25.7243 15.8957 24.7466 14.9066 23.5345Z" fill="#93B394"/>
</svg>
