<svg width="34" height="32" viewBox="0 0 34 32" fill="none" xmlns="http://www.w3.org/2000/svg">
<path d="M0.285156 2.292C0.285156 1.026 1.38351 0 2.7387 0H31.2416C32.5968 0 33.6951 1.026 33.6951 2.292V29.708C33.6951 30.974 32.5968 32 31.2416 32H2.7387C1.38351 32 0.285156 30.974 0.285156 29.708V2.292ZM10.6067 26.788V12.338H5.59316V26.788H10.6067ZM8.101 10.364C9.84876 10.364 10.9367 9.256 10.9367 7.868C10.9053 6.45 9.85085 5.372 8.13441 5.372C6.41797 5.372 5.29665 6.452 5.29665 7.868C5.29665 9.256 6.38456 10.364 8.06759 10.364H8.101ZM18.3495 26.788V18.718C18.3495 18.286 18.3829 17.854 18.5166 17.546C18.8778 16.684 19.7026 15.79 21.0891 15.79C22.9037 15.79 23.6283 17.114 23.6283 19.058V26.788H28.6419V18.5C28.6419 14.06 26.1695 11.996 22.8703 11.996C20.21 11.996 19.0177 13.396 18.3495 14.382V14.432H18.3161C18.3272 14.4153 18.3383 14.3986 18.3495 14.382V12.338H13.338C13.4007 13.694 13.338 26.788 13.338 26.788H18.3495Z" fill="white"/>
</svg>
