<svg width="34" height="26" viewBox="0 0 34 26" fill="none" xmlns="http://www.w3.org/2000/svg">
<path d="M10.5862 25.9977C23.1927 25.9977 30.0889 15.9929 30.0889 7.33198C30.0889 7.05202 30.0889 6.76805 30.0764 6.48809C31.419 5.55718 32.5778 4.40465 33.4984 3.08451C32.2442 3.61415 30.9152 3.96321 29.5544 4.12038C30.9878 3.29976 32.0614 2.00858 32.5755 0.486837C31.2288 1.25099 29.7549 1.78742 28.2182 2.07264C27.1851 1.01882 25.818 0.320693 24.3287 0.0864021C22.8394 -0.147889 21.3109 0.094729 19.9802 0.776675C18.6494 1.45862 17.5906 2.54184 16.9676 3.85854C16.3447 5.17523 16.1925 6.65193 16.5345 8.05989C13.8093 7.92901 11.1433 7.25093 8.70928 6.06962C6.27531 4.88832 4.12777 3.23018 2.40594 1.20275C1.53184 2.64873 1.26508 4.35915 1.65984 5.98668C2.05459 7.61421 3.08127 9.03683 4.53138 9.96565C3.44474 9.93029 2.38197 9.65081 1.42882 9.14975V9.23974C1.4307 10.7545 1.97857 12.2222 2.97984 13.3947C3.98111 14.5673 5.37435 15.3727 6.92407 15.6749C6.33585 15.8301 5.72821 15.9075 5.11807 15.9049C4.68794 15.9062 4.25867 15.868 3.83613 15.7909C4.27413 17.0949 5.127 18.235 6.27526 19.0515C7.42353 19.868 8.80969 20.3201 10.2396 20.3444C7.81049 22.1717 4.80991 23.1628 1.72112 23.158C1.17686 23.1602 0.632977 23.1302 0.0925903 23.068C3.22755 24.9823 6.86832 25.9987 10.5862 25.9977Z" fill="white"/>
</svg>
