<svg width="59" height="30" viewBox="0 0 59 30" fill="none" xmlns="http://www.w3.org/2000/svg">
<path d="M21.1025 4.41357H8.07443C7.89936 6.35422 6.35461 7.89897 4.41382 8.07419V21.3496C6.35446 21.5247 7.89936 23.0694 8.07443 25.0102H21.1025C18.1022 22.5828 16.1833 18.8717 16.1833 14.7119C16.1833 10.5521 18.1022 6.84104 21.1025 4.41357Z" fill="#495F58"/>
<path d="M37.7454 25.0102H50.7735C50.9485 23.0696 52.4933 21.5248 54.4341 21.3496V8.07419C52.4934 7.89911 50.9485 6.35437 50.7735 4.41357H37.7454C40.7456 6.84104 42.6646 10.5521 42.6646 14.7119C42.6646 18.8717 40.7456 22.5828 37.7454 25.0102Z" fill="#495F58"/>
<path d="M29.4238 0V3.60441H30.4306V5.99627C31.4564 6.0916 32.4198 6.32008 33.3197 6.68331C34.2196 7.04699 35.0011 7.41773 35.6642 7.79612L33.9591 11.0176C33.9118 10.9545 33.7734 10.8513 33.5446 10.7088C33.3157 10.5671 33.0235 10.4134 32.6684 10.2473C32.3129 10.0821 31.9184 9.92376 31.4842 9.7734C31.0498 9.62334 30.6118 9.51771 30.1699 9.45415V12.6749L30.9277 12.8645C31.7329 13.0856 32.4589 13.3262 33.1065 13.5866C33.7535 13.8471 34.3024 14.1709 34.7523 14.5579C35.2025 14.9451 35.5496 15.4141 35.7942 15.967C36.039 16.5195 36.1614 17.183 36.1614 17.9566C36.1614 18.8562 36.0037 19.622 35.6881 20.2533C35.3717 20.8856 34.9495 21.4018 34.421 21.8048C33.8918 22.2074 33.2841 22.512 32.5975 22.7165C31.9103 22.9211 31.1882 23.04 30.4304 23.0715V25.8194H29.4238V29.4238H58.8476V0H29.4238ZM37.7453 4.41357H50.7734C50.9485 6.35421 52.4932 7.89896 54.434 8.07418V21.3496C52.4934 21.5247 50.9485 23.0694 50.7734 25.0102H37.7453C40.7455 22.5827 42.6645 18.8717 42.6645 14.7119C42.6645 10.5521 40.7455 6.84103 37.7453 4.41357Z" fill="#93B394"/>
<path d="M31.9935 18.3354C31.9935 17.9249 31.8277 17.6051 31.4961 17.3763C31.1643 17.1471 30.7224 16.9383 30.1699 16.7485V19.5906C31.3854 19.5435 31.9935 19.1247 31.9935 18.3354Z" fill="#93B394"/>
<path d="M27.3988 10.8044C27.3988 11.1993 27.5369 11.5107 27.8137 11.7398C28.0894 11.9691 28.5038 12.1704 29.0567 12.3438V9.43103C27.9514 9.52533 27.3988 9.98346 27.3988 10.8044Z" fill="#93B394"/>
<path d="M29.4238 25.8194H28.7962V23.0482C27.7069 22.9536 26.629 22.733 25.5634 22.3855C24.4978 22.0384 23.5383 21.5803 22.686 21.0114L24.3911 17.6245C24.4542 17.7041 24.6237 17.8345 24.9003 18.0153C25.1762 18.1974 25.5279 18.3863 25.9541 18.5835C26.3803 18.7819 26.862 18.9707 27.3987 19.1527C27.9355 19.3339 28.4884 19.4641 29.0566 19.5433V16.3935L27.9198 16.0614C27.1461 15.8245 26.4752 15.5678 25.9069 15.292C25.3383 15.0157 24.8684 14.6959 24.4976 14.3331C24.1265 13.9698 23.8499 13.551 23.6685 13.0777C23.4871 12.6038 23.3962 12.0509 23.3962 11.4194C23.3962 10.5986 23.5381 9.86859 23.8227 9.22862C24.1067 8.58954 24.4893 8.04137 24.9712 7.58265C25.4526 7.12497 26.0208 6.76614 26.6765 6.5056C27.3313 6.2452 28.0381 6.07542 28.796 5.99598V3.60441H29.4238V0H0V29.4238H29.4238V25.8194ZM21.1023 25.0102H8.07418C7.89911 23.0696 6.35436 21.5248 4.41357 21.3496V8.07418C6.35421 7.89911 7.89911 6.35436 8.07418 4.41357H21.1023C18.1019 6.84103 16.1831 10.5521 16.1831 14.7119C16.1831 18.8717 18.1019 22.5827 21.1023 25.0102Z" fill="#93B394"/>
<path d="M28.7961 5.99623C28.0382 6.07567 27.3314 6.2453 26.6766 6.50585C26.021 6.7664 25.4529 7.12522 24.9714 7.58291C24.4894 8.04162 24.1069 8.58993 23.8228 9.22887C23.5383 9.86884 23.3963 10.5988 23.3963 11.4196C23.3963 12.0513 23.4872 12.6042 23.6686 13.0779C23.85 13.5512 24.1267 13.9701 24.4978 14.3333C24.8685 14.6961 25.3383 15.0159 25.907 15.2922C26.4752 15.5679 27.1462 15.8247 27.9199 16.0617L29.0567 16.3937V19.5435C28.4885 19.4644 27.9357 19.3342 27.3988 19.1529C26.8621 18.9709 26.3805 18.7822 25.9543 18.5837C25.5281 18.3866 25.1763 18.1977 24.9004 18.0155C24.6239 17.8347 24.4542 17.7044 24.3913 17.6248L22.6862 21.0116C23.5384 21.5805 24.4979 22.0385 25.5635 22.3857C26.6291 22.7332 27.707 22.9539 28.7963 23.0485V25.8193H29.4238H30.4305V23.0717C31.1883 23.0402 31.9105 22.9214 32.5976 22.7167C33.2842 22.5121 33.8919 22.2077 34.4211 21.805C34.9495 21.4021 35.3718 20.8858 35.6882 20.2535C36.0038 19.6222 36.1615 18.8565 36.1615 17.9568C36.1615 17.1831 36.0393 16.5198 35.7943 15.9672C35.5496 15.4143 35.2024 14.9453 34.7524 14.5581C34.3025 14.1712 33.7536 13.8474 33.1066 13.5868C32.459 13.3264 31.7329 13.0859 30.9278 12.8648L30.1699 12.6751V9.45441C30.6117 9.51796 31.0499 9.62359 31.4843 9.77365C31.9185 9.92386 32.313 10.0823 32.6685 10.2475C33.0238 10.4136 33.3158 10.5674 33.5447 10.709C33.7735 10.8516 33.9119 10.9547 33.9591 11.0178L35.6642 7.79638C35.0012 7.41799 34.2197 7.0471 33.3198 6.68357C32.4197 6.32033 31.4564 6.09186 30.4306 5.99652V3.60437H29.4238H28.7961V5.99623ZM30.1699 16.7487C30.7224 16.9385 31.1643 17.1473 31.4961 17.3765C31.8277 17.6052 31.9935 17.9251 31.9935 18.3355C31.9935 19.1248 31.3854 19.5437 30.1699 19.5909V16.7487ZM29.0566 12.3437C28.5037 12.1701 28.0892 11.969 27.8135 11.7396C27.5368 11.5104 27.3987 11.1989 27.3987 10.8042C27.3987 9.98344 27.9512 9.52532 29.0566 9.43101V12.3437Z" fill="#495F58"/>
</svg>
