<svg width="29" height="29" viewBox="0 0 29 29" fill="none" xmlns="http://www.w3.org/2000/svg">
<path d="M11.3504 0L10.6418 3.64732C9.45062 4.09657 8.35671 4.72629 7.39822 5.51333L3.89487 4.30508L0.518555 10.1487L3.32462 12.5878C3.21675 13.2501 3.16089 13.8638 3.16089 14.4538C3.16089 15.0446 3.21842 15.6572 3.32462 16.3198V16.3226L0.518555 18.7617L3.89487 24.6025L7.39539 23.3971C8.35398 24.1845 9.45036 24.8107 10.6418 25.2602L11.3504 28.9076H18.0974L18.806 25.2602C19.998 24.8107 21.0907 24.182 22.0496 23.3942L25.553 24.6025L28.9264 18.7617L26.1232 16.3198C26.2311 15.6575 26.2869 15.0437 26.2869 14.4538C26.2869 13.8647 26.2308 13.2518 26.1232 12.5906V12.5878L28.9293 10.1459L25.553 4.30508L22.0524 5.5105C21.0938 4.72304 19.9975 4.09683 18.806 3.64732L18.0974 0H11.3504ZM13.733 2.89076H15.7148L16.2766 5.78151L17.7841 6.35176C18.6927 6.69423 19.5091 7.16439 20.2175 7.74632L21.4652 8.76825L24.2431 7.81408L25.234 9.52764L23.0151 11.4586L23.2691 13.0479V13.0507C23.3575 13.5927 23.3962 14.0473 23.3962 14.4538C23.3962 14.8603 23.3575 15.3148 23.2691 15.8568L23.0123 17.4462L25.2311 19.3771L24.2403 21.0935L21.4652 20.1365L20.2147 21.1612C19.5063 21.7432 18.6927 22.2133 17.7841 22.5558H17.7812L16.2737 23.1261L15.712 26.0168H13.733L13.1713 23.1261L11.6638 22.5558C10.7551 22.2133 9.93874 21.7432 9.23035 21.1612L7.98258 20.1393L5.20474 21.0935L4.21387 19.3799L6.43557 17.4462L6.17868 15.8625V15.8596C6.09156 15.3154 6.05164 14.8595 6.05164 14.4538C6.05164 14.0473 6.0903 13.5927 6.17868 13.0507L6.43557 11.4614L4.21387 9.53046L5.20474 7.81408L7.98258 8.77107L9.23035 7.74632C9.93874 7.16439 10.7551 6.69423 11.6638 6.35176L13.1713 5.78151L13.733 2.89076ZM14.7239 8.67227C11.5491 8.67227 8.9424 11.279 8.9424 14.4538C8.9424 17.6286 11.5491 20.2353 14.7239 20.2353C17.8987 20.2353 20.5054 17.6286 20.5054 14.4538C20.5054 11.279 17.8987 8.67227 14.7239 8.67227ZM14.7239 11.563C16.3304 11.563 17.6147 12.8473 17.6147 14.4538C17.6147 16.0603 16.3304 17.3445 14.7239 17.3445C13.1174 17.3445 11.8332 16.0603 11.8332 14.4538C11.8332 12.8473 13.1174 11.563 14.7239 11.563Z" fill="#93B394"/>
</svg>
