<svg width="33" height="32" viewBox="0 0 33 32" fill="none" xmlns="http://www.w3.org/2000/svg">
<path d="M26.7132 8.30067L25.3965 3.47632L20.9221 4.69751L19.0582 0.935181L4.19116 8.30067H0.453735V31.9076H29.987V25.5447H32.0169V14.5559H29.9869V8.30067H26.7132ZM23.8437 6.19495L24.4184 8.3007H22.7072H20.2366H16.1283L19.7473 7.31297L21.9236 6.71898L23.8437 6.19495ZM27.7731 29.6937H2.66758V17.6364V13.4323V13.0992V10.8272V10.5145H3.81295H4.70949H8.01698H21.3334H23.8041H25.0227H26.17H27.3175H27.7731V12.1838V14.5559H27.2731H26.1257H23.2656H18.2787H16.481V15.4465V17.9171V18.2023V19.3497V20.4971V25.5446H27.7731V29.6937H27.7731V29.6937ZM29.803 23.3309H28.8799H27.773H18.6949V19.8929V18.7455V17.5981V16.8204V16.7697H18.7971H21.7299H25.9339H27.7731H28.88H29.0248H29.803V23.3309V23.3309ZM18.0573 3.9017L18.7458 5.29147L10.9663 7.41474L18.0573 3.9017Z" fill="#93B394"/>
<path d="M20.4481 19.0201V19.4143V21.1878H22.6159V19.0201H21.8921H20.4481Z" fill="#93B394"/>
</svg>
