<svg width="30" height="29" viewBox="0 0 30 29" fill="none" xmlns="http://www.w3.org/2000/svg">
<path d="M20.2746 27.0011H2.3927V1.90632H20.2746V8.12673L22.1809 6.22036V0.953159C22.1809 0.426786 21.7541 0 21.2278 0H1.43954C0.913109 0 0.486206 0.426786 0.486206 0.953159V27.9544C0.486206 28.4808 0.91305 28.9076 1.43954 28.9076H21.2278C21.7541 28.9076 22.181 28.4808 22.181 27.9544V17.4655L20.2746 19.3719V27.0011V27.0011Z" fill="#93B394"/>
<path d="M17.4644 4.1925H5.2028C4.80075 4.1925 4.47449 4.51876 4.47449 4.92093C4.47449 5.32304 4.80075 5.6493 5.2028 5.6493H17.4643C17.8665 5.6493 18.1927 5.32304 18.1927 4.92093C18.1927 4.51876 17.8665 4.1925 17.4644 4.1925Z" fill="#93B394"/>
<path d="M18.1927 8.8057C18.1927 8.40359 17.8665 8.07727 17.4644 8.07727H5.2028C4.80075 8.07727 4.47449 8.40359 4.47449 8.8057C4.47449 9.20787 4.80075 9.53412 5.2028 9.53412H17.4643C17.8665 9.53412 18.1927 9.20792 18.1927 8.8057Z" fill="#93B394"/>
<path d="M16.4396 11.9623H5.2028C4.80075 11.9623 4.47449 12.2886 4.47449 12.6907C4.47449 13.0929 4.80075 13.4191 5.2028 13.4191H14.9827L16.4396 11.9623Z" fill="#93B394"/>
<path d="M12.365 16.7911C12.4636 16.461 12.6045 16.1447 12.7761 15.8469H5.2028C4.80075 15.8469 4.47449 16.1732 4.47449 16.5754C4.47449 16.9775 4.80075 17.3038 5.2028 17.3038H12.2123L12.365 16.7911Z" fill="#93B394"/>
<path d="M5.2028 19.7319C4.80075 19.7319 4.47449 20.0582 4.47449 20.4604C4.47449 20.8624 4.80075 21.1887 5.2028 21.1887H11.6011C11.4123 20.7307 11.3635 20.2246 11.4968 19.7319H5.2028Z" fill="#93B394"/>
<path d="M28.5074 5.51701C28.1257 5.13517 27.6082 4.9209 27.0691 4.9209C26.5299 4.9209 26.0126 5.13517 25.6313 5.51654L14.855 16.2932C14.5609 16.5871 14.3452 16.949 14.2261 17.3473L13.3674 20.2259C13.3308 20.3478 13.364 20.4796 13.4542 20.5697C13.5201 20.6357 13.6083 20.6712 13.6988 20.6712C13.7316 20.6712 13.7652 20.6665 13.798 20.6566L16.6764 19.7977C17.0749 19.6787 17.4367 19.4629 17.7306 19.1689L28.5073 8.3927C28.8885 8.01139 29.1029 7.49407 29.1029 6.95489C29.1029 6.41559 28.8886 5.89826 28.5074 5.51701Z" fill="#93B394"/>
</svg>
